HIERARCHY
ROOT Hips
{
	OFFSET 0.00000 0.00000 0.00000
	CHANNELS 6 Xposition Yposition Zposition Zrotation Yrotation Xrotation 
	JOINT LHipJoint
	{
		OFFSET 0 0 0
		CHANNELS 3 Zrotation Yrotation Xrotation
		JOINT LeftUpLeg
		{
			OFFSET 1.43652 -1.81092 0.91346
			CHANNELS 3 Zrotation Yrotation Xrotation
			JOINT LeftLeg
			{
				OFFSET 2.45984 -6.75837 0.00000
				CHANNELS 3 Zrotation Yrotation Xrotation
				JOINT LeftFoot
				{
					OFFSET 2.63718 -7.24559 0.00000
					CHANNELS 3 Zrotation Yrotation Xrotation
					JOINT LeftToeBase
					{
						OFFSET 0.19690 -0.54098 2.12239
						CHANNELS 3 Zrotation Yrotation Xrotation
						End Site
						{
							OFFSET 0.00000 -0.00000 1.10116
						}
					}
				}
			}
		}
	}
	JOINT RHipJoint
	{
		OFFSET 0 0 0
		CHANNELS 3 Zrotation Yrotation Xrotation
		JOINT RightUpLeg
		{
			OFFSET -1.35116 -1.81092 0.91345
			CHANNELS 3 Zrotation Yrotation Xrotation
			JOINT RightLeg
			{
				OFFSET -2.55576 -7.02189 0.00000
				CHANNELS 3 Zrotation Yrotation Xrotation
				JOINT RightFoot
				{
					OFFSET -2.61938 -7.19669 0.00000
					CHANNELS 3 Zrotation Yrotation Xrotation
					JOINT RightToeBase
					{
						OFFSET -0.32509 -0.89318 2.23646
						CHANNELS 3 Zrotation Yrotation Xrotation
						End Site
						{
							OFFSET -0.00000 -0.00000 1.19625
						}
					}
				}
			}
		}
	}
	JOINT LowerBack
	{
		OFFSET 0 0 0
		CHANNELS 3 Zrotation Yrotation Xrotation
		JOINT Spine
		{
			OFFSET 0.05193 2.08077 -0.11958
			CHANNELS 3 Zrotation Yrotation Xrotation
			JOINT Spine1
			{
				OFFSET 0.04960 2.08447 0.01967
				CHANNELS 3 Zrotation Yrotation Xrotation
				JOINT Neck
				{
					OFFSET 0 0 0
					CHANNELS 3 Zrotation Yrotation Xrotation
					JOINT Neck1
					{
						OFFSET -0.10699 1.82066 0.27584
						CHANNELS 3 Zrotation Yrotation Xrotation
						JOINT Head
						{
							OFFSET 0.14949 1.84747 -0.32279
							CHANNELS 3 Zrotation Yrotation Xrotation
							End Site
							{
								OFFSET 0.04969 1.88916 -0.14562
							}
						}
					}
				}
				JOINT LeftShoulder
				{
					OFFSET 0 0 0
					CHANNELS 3 Zrotation Yrotation Xrotation
					JOINT LeftArm
					{
						OFFSET 3.73629 1.27211 -0.12847
						CHANNELS 3 Zrotation Yrotation Xrotation
						JOINT LeftForeArm
						{
							OFFSET 5.10995 -0.00000 0.00000
							CHANNELS 3 Zrotation Yrotation Xrotation
							JOINT LeftHand
							{
								OFFSET 3.21207 -0.00000 0.00000
								CHANNELS 3 Zrotation Yrotation Xrotation
								JOINT LeftFingerBase
								{
									OFFSET 0 0 0
									CHANNELS 3 Zrotation Yrotation Xrotation
									JOINT LeftHandIndex1
									{
										OFFSET 0.63349 -0.00000 0.00000
										CHANNELS 3 Zrotation Yrotation Xrotation
										End Site
										{
											OFFSET 0.51074 -0.00000 0.00000
										}
									}
								}
								JOINT LThumb
								{
									OFFSET 0 0 0
									CHANNELS 3 Zrotation Yrotation Xrotation
									End Site
									{
										OFFSET 0.51853 -0.00000 0.51853
									}
								}
							}
						}
					}
				}
				JOINT RightShoulder
				{
					OFFSET 0 0 0
					CHANNELS 3 Zrotation Yrotation Xrotation
					JOINT RightArm
					{
						OFFSET -3.70251 1.29541 -0.35354
						CHANNELS 3 Zrotation Yrotation Xrotation
						JOINT RightForeArm
						{
							OFFSET -5.25109 -0.00000 0.00000
							CHANNELS 3 Zrotation Yrotation Xrotation
							JOINT RightHand
							{
								OFFSET -3.28364 -0.00000 0.00000
								CHANNELS 3 Zrotation Yrotation Xrotation
								JOINT RightFingerBase
								{
									OFFSET 0 0 0
									CHANNELS 3 Zrotation Yrotation Xrotation
									JOINT RightHandIndex1
									{
										OFFSET -0.59974 -0.00000 0.00000
										CHANNELS 3 Zrotation Yrotation Xrotation
										End Site
										{
											OFFSET -0.48353 -0.00000 0.00000
										}
									}
								}
								JOINT RThumb
								{
									OFFSET 0 0 0
									CHANNELS 3 Zrotation Yrotation Xrotation
									End Site
									{
										OFFSET -0.49091 -0.00000 0.49091
									}
								}
							}
						}
					}
				}
			}
		}
	}
}
MOTION
Frames: 7
Frame Time: .0083333
1.0457 14.0668 13.8762 -9.5351 19.9135 7.0098 0.0000 0.0000 0.0000 -17.8161 -3.8734 -71.0996 15.5071 19.5090 76.7595 0.5443 -10.0626 -13.9528 1.3557 7.3704 20.8175 0.0000 0.0000 0.0000 3.2300 21.4328 -62.4721 -20.0015 -20.0000 90.0044 -0.6623 -9.5745 -21.6932 -0.0342 1.1931 -3.2802 7.0792 1.5501 20.6578 3.1106 4.2684 -1.5377 -1.8555 1.6064 -13.1466 -14.9403 -11.3319 -5.5491 24.0905 -10.1247 -34.1858 11.3720 -5.1804 -6.9635 -0.0000 -0.0000 0.0000 -85.1034 2.5232 55.2776 98.6115 -59.7179 -67.4507 -0.0000 0.0000 -40.8451 33.1154 18.2009 11.5157 -7.1250 0.0000 -0.0000 5.1392 51.3420 0.8046 -0.0000 -0.0000 0.0000 88.8426 5.7453 57.9294 -77.7228 59.4227 -49.3882 0.0000 -0.0000 -67.3065 -18.3343 1.2089 -0.4006 7.1250 -0.0000 -0.0000 6.4019 -28.6825 2.5583
0.9659 14.0351 14.2816 -9.6678 21.4246 5.7576 0.0000 0.0000 0.0000 -17.2283 -3.1614 -69.2786 16.1076 19.6328 78.5521 0.7624 -11.3038 -16.3680 1.3353 7.3170 20.6579 0.0000 0.0000 0.0000 0.6491 23.8887 -62.1515 -17.8850 -19.8924 83.8055 -0.5719 -8.7296 -20.0344 -0.0843 1.8723 -5.1528 7.1983 1.3706 21.0914 3.0351 4.0892 -1.4539 -1.9696 1.5064 -13.3000 -14.9816 -11.6045 -5.0069 24.1618 -10.5277 -34.5106 11.4455 -5.3888 -7.0693 -0.0000 0.0000 0.0000 -84.8882 -1.4911 53.5099 97.2819 -59.7987 -66.3020 -0.0000 0.0000 -43.7496 31.5638 18.4711 11.0142 -7.1250 0.0000 -0.0000 3.5024 51.3536 0.5487 -0.0000 0.0000 0.0000 89.1086 8.7228 57.1736 -78.1861 59.4660 -49.7872 0.0000 -0.0000 -68.8232 -18.7429 1.5110 -0.5126 7.1250 -0.0000 -0.0000 6.0687 -28.3646 2.4697
0.8899 14.0157 14.6887 -9.8735 23.1204 4.3274 0.0000 0.0000 0.0000 -16.4338 -2.6952 -67.0667 16.6215 19.7241 80.0781 0.9934 -12.5168 -18.6095 1.2786 7.1661 20.2085 0.0000 0.0000 0.0000 -1.7848 26.3712 -60.9724 -15.7333 -19.5578 77.4360 -0.4446 -8.0201 -17.9984 -0.1517 2.5096 -6.9164 7.2970 1.1648 21.4192 3.0351 3.8677 -1.3230 -1.9679 1.3983 -13.3481 -15.0193 -11.8457 -4.4209 24.1103 -10.9330 -34.7299 11.4661 -5.5893 -7.1611 0.0000 0.0000 0.0000 -84.2496 -5.5837 52.6779 96.8255 -59.8232 -65.9075 -0.0000 0.0000 -46.9074 31.4290 18.9562 11.2279 -7.1250 0.0000 -0.0000 3.3009 51.8766 0.5594 0.0000 0.0000 0.0000 88.8074 11.8183 56.4186 -79.5510 59.5834 -50.9636 0.0000 -0.0000 -69.8613 -18.6679 1.5110 -0.5104 7.1250 -0.0000 -0.0000 6.1267 -28.3649 2.4935
0.8144 14.0011 15.1015 -10.1573 25.0592 2.7464 0.0000 0.0000 0.0000 -15.4413 -2.5310 -64.5824 17.0757 19.7937 81.4215 1.2232 -13.7467 -20.6420 1.1857 6.9103 19.4500 0.0000 0.0000 0.0000 -4.0168 28.8859 -59.0647 -13.7208 -19.0272 71.3501 -0.2925 -7.7440 -15.8479 -0.2431 3.1727 -8.7600 7.3166 0.9228 21.5947 3.1242 3.5743 -1.1677 -1.7916 1.2730 -13.2968 -15.0710 -12.0334 -3.8053 23.9309 -11.3150 -34.7861 11.4295 -5.7669 -7.2219 -0.0000 0.0000 0.0000 -83.2351 -9.8906 52.7728 97.0168 -59.8131 -66.0729 -0.0000 0.0000 -49.8926 31.7480 19.3903 11.6089 -7.1250 0.0000 -0.0000 3.5768 52.4294 0.6547 -0.0000 0.0000 0.0000 87.9264 15.1208 55.8190 -81.5014 59.7253 -52.6468 0.0000 -0.0000 -69.9939 -18.6136 1.6009 -0.5391 7.1250 -0.0000 -0.0000 6.1638 -28.2708 2.5225
0.7378 13.9841 15.5243 -10.5498 27.2547 1.0379 0.0000 0.0000 0.0000 -14.2557 -2.6547 -61.9541 17.4939 19.8487 82.6548 1.4451 -15.0408 -22.4900 1.0702 6.5763 18.4661 0.0000 0.0000 0.0000 -5.9123 31.3886 -56.6022 -12.0261 -18.4017 66.0716 -0.1403 -8.0307 -13.9551 -0.3596 3.8525 -10.6621 7.2301 0.6411 21.5788 3.3005 3.1946 -1.0137 -1.4234 1.1243 -13.1533 -15.1523 -12.1594 -3.1799 23.6430 -11.6639 -34.6018 11.3356 -5.9181 -7.2206 0.0000 0.0000 0.0000 -81.8962 -14.4347 53.4954 97.8180 -59.7678 -66.7653 -0.0000 0.0000 -52.2174 32.8624 19.6660 12.2654 -7.1250 0.0000 -0.0000 4.7224 52.9670 0.9273 0.0000 0.0000 0.0000 86.5624 18.7136 55.2512 -83.6359 59.8464 -54.4914 0.0000 -0.0000 -68.8771 -18.5732 1.6384 -0.5504 7.1250 -0.0000 -0.0000 6.1930 -28.2318 2.5404
0.6570 13.9665 15.9590 -11.1095 29.7170 -0.8317 0.0000 0.0000 0.0000 -12.8565 -3.0300 -59.2042 17.8659 19.8905 83.7494 1.6546 -16.4640 -24.1880 0.9485 6.2025 17.3731 0.0000 0.0000 0.0000 -7.1450 33.7275 -53.6686 -10.7734 -17.8224 62.0433 -0.0088 -8.8229 -12.7378 -0.5016 4.5405 -12.6024 7.0455 0.3088 21.4144 3.5377 2.7188 -0.8830 -0.8990 0.9419 -12.9619 -15.2746 -12.2399 -2.5709 23.3139 -11.9910 -34.1036 11.1992 -6.0556 -7.1163 -0.0000 0.0000 0.0000 -80.2732 -19.1936 54.3745 98.9944 -59.6921 -67.7814 -0.0000 0.0000 -53.4280 33.8370 19.7894 12.7875 -7.1250 0.0000 -0.0000 5.7545 53.3104 1.1793 -0.0000 0.0000 0.0000 84.8852 22.5977 54.4793 -85.6407 59.9281 -56.2257 0.0000 -0.0000 -66.4841 -18.6756 1.7623 -0.5956 7.1250 -0.0000 -0.0000 6.1075 -28.1011 2.5239
0.5726 13.9464 16.4056 -11.8938 32.3960 -2.8569 0.0000 0.0000 0.0000 -11.2316 -3.6280 -56.4214 18.1857 19.9209 84.6887 1.8512 -17.9956 -25.7667 0.8284 5.8069 16.2252 0.0000 0.0000 0.0000 -7.3215 35.5545 -50.4471 -10.0260 -17.4245 59.5753 0.0903 -9.8902 -12.4698 -0.6902 5.3113 -14.7987 6.8146 -0.0711 21.1237 3.7977 2.1629 -0.7974 -0.2987 0.7251 -12.7500 -15.4345 -12.2997 -1.9897 22.9901 -12.3181 -33.2948 11.0357 -6.1960 -6.9007 0.0000 0.0000 0.0000 -78.4024 -24.1618 55.0279 100.2394 -59.6001 -68.8557 -0.0000 0.0000 -53.3278 34.1279 19.9346 13.0116 -7.1250 0.0000 -0.0000 6.0552 53.5386 1.2751 0.0000 0.0000 0.0000 83.0187 26.7297 53.2707 -87.3135 59.9727 -57.6736 0.0000 -0.0000 -63.1066 -18.8087 1.9099 -0.6504 7.1250 -0.0000 -0.0000 5.9973 -27.9453 2.5001
